<svg id="Layer_1" data-name="Layer 1" xmlns="http://www.w3.org/2000/svg" viewBox="0 0 247.59 27.48">
  <defs>
    <style>
      .logo {
        fill: #3d3d3d;
      }
    </style>
  </defs>
  <g>
    <path class="logo" d="M5.6,20.09H8.24V3.56H5.6V1.25H20.93V6.17H18.32V3.71H11.24v6.81h7.5V13h-7.5v7h7.59V17.42h2.61v5H5.6Z" transform="translate(-5.6 -1.25)"/>
    <path class="logo" d="M23.39,20.18h2.37v-10a.59.59,0,0,0-.66-.66H23.24V7.25h3.42c1.32,0,1.92.57,1.92,1.68v.78a4.31,4.31,0,0,1-.09.87h.06a6.39,6.39,0,0,1,5.91-3.69c3.48,0,5,2,5,5.82v7.47h2.4v2.25H36.59V13.37c0-2.13-.42-3.81-2.85-3.81-3.06,0-5.07,2.79-5.07,5.82v4.8h2.4v2.25H23.39Z" transform="translate(-5.6 -1.25)"/>
    <path class="logo" d="M50.42,6.89C54.74,6.89,57,10.07,57,14c0,.39-.09,1.11-.09,1.11H45.8a5.11,5.11,0,0,0,5.25,5.16,7.39,7.39,0,0,0,4.53-1.71l1.2,2.13a9.3,9.3,0,0,1-5.91,2.1,7.73,7.73,0,0,1-8-7.95C42.83,10,46.1,6.89,50.42,6.89ZM54,13.25c-.09-2.67-1.71-4.05-3.63-4.05a4.46,4.46,0,0,0-4.44,4.05Z" transform="translate(-5.6 -1.25)"/>
    <path class="logo" d="M58.73,20.18H61v-10a.59.59,0,0,0-.66-.66H58.46V7.25h3.42c1.32,0,1.95.54,1.95,1.77v1a8.82,8.82,0,0,1-.06,1h.06a4.87,4.87,0,0,1,5.55-3.9V10a3.83,3.83,0,0,0-.84-.09c-3.24,0-4.62,3.27-4.62,6.24v4h2.25v2.25H58.73Z" transform="translate(-5.6 -1.25)"/>
    <path class="logo" d="M76.7,26.27c2.63,0,4.8-1.2,4.8-4.32v-1.2a6.69,6.69,0,0,1,.08-1h-.06A4.93,4.93,0,0,1,77,22.25c-4.2,0-6.78-3.39-6.78-7.77s2.43-7.59,6.66-7.59c2,0,4.07.75,4.92,2.49h.06a2.41,2.41,0,0,1-.06-.6c0-1,.48-1.53,1.73-1.53h3.24V9.5H85.06a.58.58,0,0,0-.66.6V21.8c0,5-3.8,6.93-7.64,6.93a11.93,11.93,0,0,1-5.19-1.26l1-2.22A9.78,9.78,0,0,0,76.7,26.27Zm4.86-11.76c0-4-1.92-5.1-4.29-5.1-2.61,0-4.11,1.92-4.11,5s1.65,5.31,4.38,5.31C79.64,19.73,81.56,18.47,81.56,14.51Z" transform="translate(-5.6 -1.25)"/>
    <path class="logo" d="M88.1,20.18h2.37V9.5H88V7.25h5.43V20.18h2.39v2.25H88.1ZM90.41,1.25h3v3h-3Z" transform="translate(-5.6 -1.25)"/>
    <path class="logo" d="M105.52,10.37a8.92,8.92,0,0,1,.84-.87V9.44s-.63.06-1.23.06H99.85v2.43H97.31V7.25h12.57V9.17l-8.32,10.14a5.65,5.65,0,0,1-.83.84v.06s.6,0,1.2,0h5.6V17.75h2.55v4.68H97.16V20.51Z" transform="translate(-5.6 -1.25)"/>
    <path class="logo" d="M119.32,6.89c4.32,0,6.57,3.18,6.57,7.11,0,.39-.09,1.11-.09,1.11H114.7A5.11,5.11,0,0,0,120,20.27a7.39,7.39,0,0,0,4.53-1.71l1.2,2.13a9.3,9.3,0,0,1-5.91,2.1,7.73,7.73,0,0,1-8-7.95C111.73,10,115,6.89,119.32,6.89Zm3.57,6.36c-.09-2.67-1.71-4.05-3.63-4.05a4.46,4.46,0,0,0-4.44,4.05Z" transform="translate(-5.6 -1.25)"/>
    <path class="logo" d="M134.29,6.89A5.13,5.13,0,0,1,139,9.44H139a6.84,6.84,0,0,1-.09-1.14V3.5h-2.52V1.25h5.43V19.52a.59.59,0,0,0,.66.66H144v2.25h-3c-1.35,0-1.89-.66-1.89-1.65v-.21a3.09,3.09,0,0,1,.09-.81h-.06a5.42,5.42,0,0,1-5.13,3c-4.08,0-6.63-3.24-6.63-7.95S130.21,6.89,134.29,6.89Zm.36,13.38c2.25,0,4.38-1.62,4.38-5.4,0-2.79-1.41-5.43-4.29-5.43-2.43,0-4.38,2-4.38,5.4S132.13,20.27,134.65,20.27Z" transform="translate(-5.6 -1.25)"/>
    <path class="logo" d="M153,3.5h-2.55V1.25h5.46v7a8.5,8.5,0,0,1-.09,1.26h.06a5.48,5.48,0,0,1,4.89-2.64c4.11,0,6.69,3.24,6.69,8s-2.91,8-6.93,8a5.3,5.3,0,0,1-4.8-2.76h-.06a8.15,8.15,0,0,1,.09,1.2v1.2H153Zm7.14,16.77c2.37,0,4.35-1.95,4.35-5.4,0-3.3-1.77-5.43-4.29-5.43-2.25,0-4.38,1.59-4.38,5.46C155.83,17.6,157.24,20.27,160.15,20.27Z" transform="translate(-5.6 -1.25)"/>
    <path class="logo" d="M171.79,26.3a3.11,3.11,0,0,0,2.79-2.1l.63-1.5L169.9,9.5H168V7.25h6.93V9.5h-2l3.39,9a7,7,0,0,1,.27,1.32h.09a9.21,9.21,0,0,1,.36-1.32l3.36-9h-2V7.25h6.72V9.5h-1.89l-6,15.33a5.62,5.62,0,0,1-5.33,3.9,6,6,0,0,1-3.28-1l1-2.19A3.65,3.65,0,0,0,171.79,26.3Z" transform="translate(-5.6 -1.25)"/>
    <path class="logo" d="M195.38,24.56a2.54,2.54,0,0,0,2.54-1.26l.06-.15-5.1-12.42h-1.74V7h8.49v3.75h-1.5L200,16.46a9.28,9.28,0,0,1,.36,2h.12a11.87,11.87,0,0,1,.48-2l1.83-5.73H201.4V7h8v3.75h-1.59l-5,13.05a7.17,7.17,0,0,1-7.2,4.95,8.29,8.29,0,0,1-4.4-1.2l1.59-3.69A4.25,4.25,0,0,0,195.38,24.56Z" transform="translate(-5.6 -1.25)"/>
    <path class="logo" d="M218.14,6.62c4.89,0,8.79,3.27,8.79,8.13s-3.9,8-8.76,8-8.75-3.21-8.75-8S213.31,6.62,218.14,6.62Zm0,11.85a3.49,3.49,0,0,0,3.51-3.72,3.52,3.52,0,1,0-7,0A3.49,3.49,0,0,0,218.17,18.47Z" transform="translate(-5.6 -1.25)"/>
    <path class="logo" d="M229.39,10.73h-2.1V7h7.29v9.21c0,1.44.57,2,1.71,2,2,0,3.21-2.37,3.21-4.71V10.73h-2.1V7h7.29V18a.6.6,0,0,0,.66.66h1.29v3.75h-4.77c-1.41,0-2.13-.69-2.13-1.74v-.42a4.27,4.27,0,0,1,0-.45h-.06a5.59,5.59,0,0,1-5.25,3c-2.73,0-5.07-1.44-5.07-5.79Z" transform="translate(-5.6 -1.25)"/>
    <path class="logo" d="M248.26,17.51h4.92v4.92h-4.92Z" transform="translate(-5.6 -1.25)"/>
  </g>
</svg>
