<?xml version="1.0" encoding="utf-8"?>
<svg version="1.1" id="Layer_1" xmlns="http://www.w3.org/2000/svg" xmlns:xlink="http://www.w3.org/1999/xlink" x="0px" y="0px"
	 width="32px" height="32px" viewBox="0 0 32 32" style="enable-background:new 0 0 32 32;" xml:space="preserve">
  <path class="background" fill="#ffffff" d="M16,1C7.7,1,1,7.7,1,16s6.7,15,15,15s15-6.7,15-15S24.3,1,16,1z"/>
  <g>
    <path class="icon" fill="#3d3d3d" d="M15.4,21.9c-0.9,0-1.6,0.7-1.6,1.6s0.7,1.6,1.6,1.6c0.9,0,1.6-0.7,1.6-1.6S16.3,21.9,15.4,21.9z"/>
    <path class="icon" fill="#3d3d3d" d="M19.2,9.3C17.9,8,14.8,8,13,9.1c-0.7,0.4-1.6,1.3-1.6,3c0,0.5,0.4,0.9,0.9,0.9s0.9-0.4,0.9-0.9
      c0-1,0.5-1.4,0.8-1.6c0.9-0.5,3.1-0.6,3.8,0.1c0.7,0.6,1,2.3,0,3.5c-0.6,0.6-1.1,1.2-1.6,1.7c-0.6,0.6-1.1,1.1-1.3,1.5
      c-0.4,0.7-0.4,1.1-0.4,1.9v0.2c0,0.5,0.4,0.9,0.9,0.9s0.9-0.4,0.9-0.8v-0.2c0-0.7,0-0.8,0.2-1.1c0.1-0.3,0.5-0.7,1-1.2
      s1.1-1.1,1.7-1.8C20.8,13.3,20.5,10.6,19.2,9.3z"/>
  </g>
  <path class="border" fill="#3d3d3d" d="M16,31.5c-8.6,0-15.5-7-15.5-15.5S7.4,0.5,16,0.5S31.5,7.4,31.5,16S24.5,31.5,16,31.5z M16,1.5
    C8,1.5,1.5,8,1.5,16S8,30.5,16,30.5S30.5,24,30.5,16S24,1.5,16,1.5z"/>
</svg>
