<svg id="Layer_1" data-name="Layer 1" xmlns="http://www.w3.org/2000/svg" viewBox="0 0 234.75 36.6"><defs><style>.cls-1{fill:#3d3d3d;}</style></defs><g id="LABNEXT"><polygon class="cls-1" points="136.69 36.6 163.76 36.6 163.76 30.29 143.43 30.29 143.43 20.58 161.58 20.58 161.58 14.55 143.21 14.55 143.21 5.93 163.76 5.93 163.76 0.18 136.69 0.18 136.69 36.6"/><polygon class="cls-1" points="201.86 35.92 194.39 35.92 184.94 22.29 175.57 35.92 168.31 35.92 181.24 17.71 168.67 0 176.3 0.1 185.2 13.1 194.1 0.14 201.3 0 188.9 17.64 201.86 35.92"/><polygon class="cls-1" points="223.48 35.9 217.07 35.99 216.98 6.04 205.61 6.04 205.7 0.08 234.75 0.08 234.75 6.04 223.48 6.04 223.48 35.9"/><polygon class="cls-1" points="127.74 35.85 121.99 35.85 102.71 10.61 102.71 35.85 96.32 35.85 96.32 0.07 102.5 0.07 121.35 24.67 121.35 0.07 127.74 0.07 127.74 35.85"/><polyline class="cls-1" points="167.48 12.18 174.7 19.4 167.48 26.62"/><path class="cls-1" d="M32.62,134.08h1v32.21H54v.94H32.62Z" transform="translate(-32.62 -131.7)"/><path class="cls-1" d="M57.77,160.7v-.1c0-5,4.64-7.53,10.56-7.53a27.42,27.42,0,0,1,8.9,1.47v-2c0-5.73-3.41-8.43-9-8.43a17.63,17.63,0,0,0-7.86,2l-.38-.85a18.21,18.21,0,0,1,8.29-2.08c3.27,0,5.82.85,7.58,2.6a9.36,9.36,0,0,1,2.32,6.73v14.72h-1v-5.59c-1,2.75-4.54,6.16-10.61,6.16C62,167.8,57.77,165.39,57.77,160.7Zm19.46-2.13v-3A24.05,24.05,0,0,0,68.38,154c-5.35,0-9.57,2.18-9.57,6.54v.09c0,4.17,3.69,6.2,7.86,6.2C73,166.85,77.23,162.78,77.23,158.57Z" transform="translate(-32.62 -131.7)"/><path class="cls-1" d="M87.56,159.89v7.34h-1V132.66h1V150.9A11.14,11.14,0,0,1,98.5,143c6.86,0,11.83,5.49,11.83,12.36v.09c0,6.87-5,12.36-11.83,12.36A11.14,11.14,0,0,1,87.56,159.89Zm21.73-4.4v-.1c0-6.29-4.35-11.46-10.84-11.46s-10.94,5.26-10.94,11.42v.09c0,6.11,4.54,11.41,10.94,11.41S109.29,161.83,109.29,155.49Z" transform="translate(-32.62 -131.7)"/></g></svg>