<svg id="Layer_1" data-name="Layer 1" xmlns="http://www.w3.org/2000/svg" viewBox="0 0 303.73 100.66"><defs><style>.cls-1,.cls-2,.cls-5,.cls-6{fill:none;stroke:#3d3d3d;}.cls-1,.cls-2,.cls-5{stroke-miterlimit:10;}.cls-2{stroke-width:0.5px;}.cls-3{fill:#3d3d3d;}.cls-4{fill:#fff;}.cls-5{stroke-width:2px;}.cls-6{stroke-linecap:round;stroke-linejoin:round;stroke-width:3px;}</style></defs><path class="cls-1" d="M-11.67,103.7c6-.68,9.17,18.6,19.34,18.31,5.95-.17,6.85-18,16.09-11.46,14.67,10.31,7.48-8.6,26.31-5.18,8.15,1.48,2.91,8.43,2.93,9.91" transform="translate(11.72 -103.18)"/><line class="cls-2" x1="66.47" y1="25.08" x2="66.47" y2="22.79"/><rect class="cls-3" x="62.31" y="6.15" width="8.19" height="8.48"/><rect class="cls-3" x="43.32" y="119.38" width="7.12" height="2.21" transform="translate(-61.5 -30.56) rotate(-47.01)"/><rect class="cls-3" x="58.94" y="119.39" width="7.12" height="2.18" transform="translate(28.72 145.17) rotate(-132.99)"/><polygon class="cls-3" points="67.4 22.48 66.43 23.35 65.51 22.48 65.51 20.72 67.4 20.72 67.4 22.48"/><rect class="cls-3" x="59.9" y="20.68" width="3.71" height="0.99"/><rect class="cls-3" x="69.27" y="20.68" width="3.71" height="0.99"/><path class="cls-3" d="M59.27,118.56l4.86,5.28H45.26l4.83-5.28v-1.73h9.18ZM52.76,118H52v4.69h.79Zm1.16,0h-.79v4.69h.79Zm1.16,0h-.79v4.69h.79Zm1.16,0h-.79v4.69h.79Zm1.16,0h-.79v4.69h.79Z" transform="translate(11.72 -103.18)"/><path class="cls-3" d="M102.51,170h0c-13,0-13.31-.54-13.31-13.31V132.93c0-13.26-.15-13.31,13.31-13.31h0c13.61,0,13.3,0,13.3,13.31v23.71C115.81,169.83,115.91,170,102.51,170Z" transform="translate(11.72 -103.18)"/><polygon class="cls-3" points="70.08 27.41 63.37 24.74 58.45 38.13 57.02 42.16 56.04 45.11 54.93 48.65 53.89 52.28 52.44 46.95 51.36 43.56 48.35 34.73 44.06 22.66 38.14 22.66 35.64 58.6 40.08 58.58 40.82 46.6 41.3 38.32 41.55 32.55 41.65 29.79 41.72 27.3 41.83 27.3 42.15 28.6 42.57 30.23 42.93 31.51 43.25 32.64 43.76 34.35 44.63 37.14 51.67 58.5 55.28 58.5 61.52 41.35 62.86 37.61 63.63 35.39 64.97 31.31 66.22 27.35 66.46 34.13 66.71 39.51 67.11 46.84 67.43 52.5 67.79 58.58 72.31 58.59 70.08 27.41"/><path class="cls-3" d="M86.18,162H81.91l-.36-3.25h-.16l-.43.55a10.09,10.09,0,0,1-1.12,1.07,11.59,11.59,0,0,1-1,.76,9.38,9.38,0,0,1-4.36,1.41c-.33,0-.72,0-1.1,0a11.18,11.18,0,0,1-2.12-.25A7.38,7.38,0,0,1,68.45,161a7,7,0,0,1-2.76-4.65,8.76,8.76,0,0,1,1.73-6.51c2.06-2.46,6.44-4.35,13.7-4.28v-.3a10.88,10.88,0,0,0-.28-2.49,6.3,6.3,0,0,0-.72-1.6,3.8,3.8,0,0,0-.66-.76l-.32-.26-.2-.14a1.5,1.5,0,0,0-.25-.15c-4.8-2.25-10.16,1.09-10.16,1.09l-1.11-3.05a11.93,11.93,0,0,1,2.06-1.07,16.93,16.93,0,0,1,3.3-1,16.3,16.3,0,0,1,5.36-.12,13.74,13.74,0,0,1,1.42.29,10.09,10.09,0,0,1,1,.36l.42.18a9.59,9.59,0,0,1,1.39.85A6.86,6.86,0,0,1,83,138a7.46,7.46,0,0,1,1.54,2.15,14.38,14.38,0,0,1,1.2,5.78c.14,2.81,0,8.83,0,11.94C85.79,158.92,86.18,162,86.18,162Zm-4.94-13.17a22.54,22.54,0,0,0-6.65.71c-1.32.38-4.3,1.34-4.3,5.35,0,2.52,1.88,4.73,5.63,4.12a6.31,6.31,0,0,0,5.29-5.22Z" transform="translate(11.72 -103.18)"/><polygon class="cls-4" points="109.68 58.87 105.02 58.87 105.02 20.97 109.68 20.97 109.68 44.88 111.91 42.13 113.44 40.31 119.65 33.02 125.3 33.02 115.36 43.61 126.7 58.84 121.04 58.86 112.16 46.55 109.68 49.1 109.68 58.87"/><path class="cls-3" d="M116.45,149c0-7.45,4.83-13.41,11.82-13.44,8,0,11.78,6.33,10.82,14.4H121a8.26,8.26,0,0,0,4,7.81c2.36,1.41,7.46,1.55,11.93-.19l.8,3.38c-2.46,1.16-5.33,1.54-9.45,1.54C120.39,162.49,116.45,156.43,116.45,149Zm18.25-2.4a11.32,11.32,0,0,0-.35-2.81,7.35,7.35,0,0,0-1.11-2.42,5.77,5.77,0,0,0-5-2.4,6.18,6.18,0,0,0-4,1.34l-.2.15-.39.36a6.92,6.92,0,0,0-1,1.22,9.29,9.29,0,0,0-1.6,4.55Z" transform="translate(11.72 -103.18)"/><path class="cls-3" d="M149.71,162h-4.94s.22-8.22.28-14.05c.07-6.89-.28-11.83-.28-11.83l4.17,0,.15,5.09.23,0a7.52,7.52,0,0,1,6.1-5.55,6.74,6.74,0,0,1,2.33.09l.06,4.39a6.27,6.27,0,0,0-5.41,1.18,7.66,7.66,0,0,0-2,2.8,12.3,12.3,0,0,0-.76,4Z" transform="translate(11.72 -103.18)"/><path class="cls-5" d="M177.5,155.69a6.82,6.82,0,0,1-2.05,4.31,9.62,9.62,0,0,1-4.89,2.32c-6.33,1-9.92-1.56-9.92-1.56l1.19-3.57A11.54,11.54,0,0,0,169.2,159c3.93-.55,4-3.59,3.72-4.74-.67-2.78-4.95-3.77-5.9-4.22-2.27-1.06-2.38-.9-3.9-2.55a6.17,6.17,0,0,1-1.68-5.32c.13-3.18,3.45-5.48,5.38-6.1,5-1.58,9.76,1.15,9.76,1.15l-1.14,3.45s-4.33-1.78-5.81-1.49c-1.17.23-3,.52-3.69,2.72-.82,2.71,6.53,5.37,8.71,7.16a5.5,5.5,0,0,1,1.38,1.29,6.07,6.07,0,0,1,1.11,1.94A8.17,8.17,0,0,1,177.5,155.69Z" transform="translate(11.72 -103.18)"/><path class="cls-5" d="M188.13,172.53h-4.71s.06-13.6.06-18.14c0-9.5-.35-18.29-.35-18.29h4.44l.1,4.48h.11a10,10,0,0,1,1-1.43,9.38,9.38,0,0,1,2.4-2.1,9.92,9.92,0,0,1,5.39-1.5,10.6,10.6,0,0,1,7.83,3.16,14.79,14.79,0,0,1,2.48,4.17,15.69,15.69,0,0,1,.91,4.39,22.53,22.53,0,0,1-.12,4.32,16.94,16.94,0,0,1-1.1,4,11.37,11.37,0,0,1-5.77,6c-1.8.73-3.53,1.45-7.73.64a9.26,9.26,0,0,1-3.08-1.68,10.08,10.08,0,0,1-1.9-2Zm7.65-33.3c-6.71.3-7.57,7.46-7.57,7.46v5.56a7.51,7.51,0,0,0,7.24,6.68c4.45.37,8.42-4,8.42-9.6S200.24,139,195.78,139.23Z" transform="translate(11.72 -103.18)"/><path class="cls-5" d="M232.87,162.05H228.6l-.37-3.25h-.16c-.18.25-.29.39-.42.55a10.09,10.09,0,0,1-1.12,1.07,11.59,11.59,0,0,1-1,.76,9.42,9.42,0,0,1-4.36,1.41c-.33,0-.72,0-1.1,0a10.42,10.42,0,0,1-2.12-.25,7.31,7.31,0,0,1-2.79-1.31,7,7,0,0,1-2.76-4.65,8.72,8.72,0,0,1,1.73-6.51c2.06-2.45,6.44-4.35,13.69-4.28a2.26,2.26,0,0,0,0-.29,10.26,10.26,0,0,0-.27-2.5,6.08,6.08,0,0,0-.72-1.59,4.55,4.55,0,0,0-1-1l-.2-.14a2.75,2.75,0,0,0-.25-.15c-4.8-2.25-10.16,1.1-10.16,1.1L214.11,138a11.93,11.93,0,0,1,2.06-1.07,17.43,17.43,0,0,1,3.3-1,16,16,0,0,1,5.36-.11,9.93,9.93,0,0,1,1.42.29,8,8,0,0,1,1,.35l.42.18a9,9,0,0,1,1.38.85,5.91,5.91,0,0,1,.66.56,7.65,7.65,0,0,1,1.54,2.15,14.6,14.6,0,0,1,1.2,5.78c.14,2.81,0,8.83,0,11.94C232.48,159,232.87,162.05,232.87,162.05Zm-4.94-13.16a22.73,22.73,0,0,0-6.65.7C220,150,217,150.93,217,155c0,2.51,1.88,4.73,5.62,4.11a6.31,6.31,0,0,0,5.3-5.22Z" transform="translate(11.72 -103.18)"/><path class="cls-5" d="M261.33,149c0-7.44,4.83-13.41,11.82-13.44,8,0,11.78,6.33,10.82,14.4h-18.1a8.26,8.26,0,0,0,4,7.81c2.36,1.41,7.46,1.55,11.93-.18l.8,3.37c-2.46,1.16-5.33,1.55-9.45,1.55C265.27,162.55,261.33,156.48,261.33,149Zm18.25-2.4a11.32,11.32,0,0,0-.35-2.81,7.35,7.35,0,0,0-1.11-2.42,5.77,5.77,0,0,0-5-2.4,6.18,6.18,0,0,0-4,1.34l-.19.15a4.64,4.64,0,0,0-.4.36,7.3,7.3,0,0,0-1,1.22,9.29,9.29,0,0,0-1.6,4.56Z" transform="translate(11.72 -103.18)"/><path class="cls-5" d="M242.44,148.24c-.65,4.44,2.31,9.1,6,10.19,4,1.18,8.68-.88,8.68-.88L258,161a8.63,8.63,0,0,1-4.22,1.35c-12,1.28-16-5.88-16-13.34s5.49-13.49,14.05-13.49a20.11,20.11,0,0,1,6.25,1.43l-1,3.66S244.36,135.26,242.44,148.24Z" transform="translate(11.72 -103.18)"/><line class="cls-6" x1="33.06" y1="62.63" x2="75.12" y2="62.63"/><polygon class="cls-3" points="65.88 23.98 69.83 25.06 70.12 27.99 63.14 26.52 65.88 23.98"/><path class="cls-3" d="M275.09,185.71a.5.5,0,0,1,.32-.44c.51-.23.88.12,1.69-.61,1.32-1.2,4.29-10.64,5.59-10.64s4.36,9.41,5.57,10.72c.55.61,1.09.31,1.58.49s.39.38.39.38v.67H275.09Z" transform="translate(11.72 -103.18)"/><rect class="cls-3" x="275.09" y="186.86" width="15.19" height="1.01" transform="translate(577.09 271.55) rotate(180)"/><path class="cls-3" d="M282.65,161.79h0a.5.5,0,0,1,.5.51v10.94c0,.29-.22-.14-.5-.14h0c-.27,0-.49.43-.49.14V162.3A.5.5,0,0,1,282.65,161.79Z" transform="translate(11.72 -103.18)"/><path class="cls-3" d="M276.64,188.15h12.05c1.83,0,3.32,2,3.32,4.52v11.18H273.33V192.67C273.33,190.19,274.82,188.15,276.64,188.15Zm11,8.45h3.67v-.91h-3.67Zm0-1.67h3.67V194h-3.67Zm0-1.64h3.67v-.91h-3.67ZM274,196.59h3.68v-.9H274Zm0-1.67h3.68V194H274Zm0-1.64h3.68v-.91H274Zm9.16-.64a1.13,1.13,0,1,0,1.13-1.12A1.13,1.13,0,0,0,283.12,192.64Zm-3.24,0a1.13,1.13,0,1,0,1.13-1.12A1.13,1.13,0,0,0,279.88,192.64Z" transform="translate(11.72 -103.18)"/><circle class="cls-3" cx="295.95" cy="65.8" r="0.4"/><circle class="cls-3" cx="296.89" cy="64.03" r="0.81"/><circle class="cls-3" cx="295.95" cy="62.55" r="0.37"/><circle class="cls-3" cx="296.95" cy="61.15" r="0.84"/><circle class="cls-3" cx="296.02" cy="59.51" r="0.38"/><circle class="cls-3" cx="292.81" cy="59.7" r="0.4"/><circle class="cls-3" cx="291.96" cy="61.11" r="0.86"/><circle class="cls-3" cx="290.85" cy="62.4" r="0.37"/><circle class="cls-3" cx="292.84" cy="63.17" r="0.4"/><circle class="cls-3" cx="291.55" cy="65.43" r="0.33"/></svg>