<svg id="Layer_1" data-name="Layer 1" xmlns="http://www.w3.org/2000/svg" viewBox="0 0 1313.47 339.87"><defs><style>.cls-1{fill:#3d3d3d;}</style></defs><path class="cls-1" d="M370,114.13h18v143h89.84v16.65H370Z" transform="translate(-12.21 -24)"/><path class="cls-1" d="M508.68,110.71h20.06v19.38H508.68Zm1.14,45.14h17.56V273.74H509.82Z" transform="translate(-12.21 -24)"/><path class="cls-1" d="M585.75,251.16v22.58H568.19V107.28h17.56v72.29c9.57-14.14,23.48-26.23,45.14-26.23,28.28,0,56.32,22.35,56.32,61.11v.46c0,38.53-27.82,61.33-56.32,61.33C609,276.24,594.87,264.39,585.75,251.16Zm83.45-36v-.46c0-27.82-19.15-45.6-41.5-45.6-21.89,0-42.64,18.47-42.64,45.37v.46c0,27.36,20.75,45.6,42.64,45.6C650.5,260.51,669.2,243.64,669.2,215.14Z" transform="translate(-12.21 -24)"/><path class="cls-1" d="M719.59,155.85h17.56v30.78c8.67-19.61,25.77-33.74,48.11-32.83v18.93H783.9c-25.77,0-46.75,18.46-46.75,54v47H719.59Z" transform="translate(-12.21 -24)"/><path class="cls-1" d="M797.35,239.53v-.45c0-24.86,20.52-38.08,50.39-38.08A125,125,0,0,1,884,206v-4.11c0-21.2-13-32.15-35.12-32.15-13.9,0-24.85,3.65-35.79,8.67l-5.25-14.37c13-5.93,25.77-9.8,42.87-9.8,16.64,0,29.41,4.33,38.08,13,8,8,12.08,19.38,12.08,34.43v72.06H884V256c-8.21,10.72-21.89,20.29-42.64,20.29C819.47,276.24,797.35,263.7,797.35,239.53Zm86.88-9.12V219a123,123,0,0,0-34.66-5c-22.12,0-34.43,9.57-34.43,24.39v.46c0,14.82,13.68,23.49,29.64,23.49C866.44,262.34,884.23,249.11,884.23,230.41Z" transform="translate(-12.21 -24)"/><path class="cls-1" d="M938.27,155.85h17.56v30.78c8.66-19.61,25.76-33.74,48.11-32.83v18.93h-1.37c-25.77,0-46.74,18.46-46.74,54v47H938.27Z" transform="translate(-12.21 -24)"/><path class="cls-1" d="M1031.08,110.71h20.06v19.38h-20.06Zm1.14,45.14h17.55V273.74h-17.55Z" transform="translate(-12.21 -24)"/><path class="cls-1" d="M1081.7,239.53v-.45c0-24.86,20.52-38.08,50.39-38.08a124.93,124.93,0,0,1,36.25,5v-4.11c0-21.2-13-32.15-35.11-32.15-13.91,0-24.86,3.65-35.8,8.67l-5.25-14.37c13-5.93,25.77-9.8,42.87-9.8,16.65,0,29.41,4.33,38.08,13,8,8,12.08,19.38,12.08,34.43v72.06h-16.87V256c-8.21,10.72-21.89,20.29-42.64,20.29C1103.81,276.24,1081.7,263.7,1081.7,239.53Zm86.87-9.12V219a122.88,122.88,0,0,0-34.66-5c-22.12,0-34.43,9.57-34.43,24.39v.46c0,14.82,13.68,23.49,29.64,23.49C1150.78,262.34,1168.57,249.11,1168.57,230.41Z" transform="translate(-12.21 -24)"/><path class="cls-1" d="M1222.61,155.85h17.56v20.52c7.75-12.77,20.07-23,40.36-23,28.5,0,45.15,19.16,45.15,47.2v73.2h-17.56V204.88c0-21.89-11.86-35.57-32.61-35.57-20.29,0-35.34,14.82-35.34,36.93v67.5h-17.56Z" transform="translate(-12.21 -24)"/><path class="cls-1" d="M307.24,24.77v83.11L284.1,88.36,261,107.88V24H66.08A53.87,53.87,0,0,0,12.21,77.87V310a53.87,53.87,0,0,0,53.87,53.87H298.2A53.87,53.87,0,0,0,352.07,310V77.87A53.87,53.87,0,0,0,307.24,24.77ZM197,273.74H185.79V204.65c0-25.08-13-39.68-34.43-39.68C131.75,165,114.65,180,114.65,206v67.72H103.48V204c0-24.17-13.22-39-34-39S32.34,183.21,32.34,206.7v67H21.17V157.45H32.34V178.2c7.53-12.09,18-23.49,38.76-23.49,20.3,0,32.84,11.63,39.22,25.08,7.53-13,20.07-25.08,42-25.08,27.59,0,44.69,19.38,44.69,48.57Zm90.53,4.1c-10.27,24.4-22.12,33.06-38.77,33.06a52.36,52.36,0,0,1-23-5l3.88-9.81c6.16,3,11.17,4.33,19.84,4.33,12.08,0,20.06-7.06,28.73-27.36l-55.87-115.6h13l48.34,104,41.95-104h12.32Z" transform="translate(-12.21 -24)"/></svg>