<?xml version="1.0" encoding="utf-8"?>
<!DOCTYPE svg PUBLIC "-//W3C//DTD SVG 1.1//EN" "http://www.w3.org/Graphics/SVG/1.1/DTD/svg11.dtd">
<svg version="1.1" xmlns="http://www.w3.org/2000/svg" xmlns:xlink="http://www.w3.org/1999/xlink" x="0px" y="0px"
     viewBox="0 0 32 32" enable-background="new 0 0 32 32" xml:space="preserve">
  <path class="background" fill="#ffffff" d="M16,1A15,15,0,1,0,31,16,15,15,0,0,0,16,1Z"/>
  <path class="icon" fill="#3d3d3d" d="M22.69,12.57c0,0.15,0,.3,0,0.45A9.82,9.82,0,0,1,7.59,21.29a6.94,6.94,0,0,0,5.11-1.43,3.46,3.46,0,0,1-3.22-2.4,3.31,3.31,0,0,0,.65.06A3.39,3.39,0,0,0,11,17.4,3.45,3.45,0,0,1,8.26,14a0.29,0.29,0,0,1,0,0,3.41,3.41,0,0,0,1.56.43A3.45,3.45,0,0,1,8.76,9.79a9.8,9.8,0,0,0,7.11,3.61,3.46,3.46,0,0,1,5.88-3.15A6.83,6.83,0,0,0,24,9.41a3.47,3.47,0,0,1-1.52,1.91,6.89,6.89,0,0,0,2-.54,7,7,0,0,1-1.72,1.78"/>
  <path class="border" fill="#3d3d3d" d="M16,31.5C7.45,31.5,0.5,24.55,0.5,16S7.45,0.5,16,0.5S31.5,7.45,31.5,16S24.55,31.5,16,31.5z M16,1.5
    C8,1.5,1.5,8,1.5,16S8,30.5,16,30.5S30.5,24,30.5,16S24,1.5,16,1.5z"/>
</svg>
