<?xml version="1.0" encoding="utf-8"?>
<!DOCTYPE svg PUBLIC "-//W3C//DTD SVG 1.1//EN" "http://www.w3.org/Graphics/SVG/1.1/DTD/svg11.dtd">
<svg version="1.1" xmlns="http://www.w3.org/2000/svg" xmlns:xlink="http://www.w3.org/1999/xlink" x="0px" y="0px"
	   viewBox="0 0 32 32" enable-background="new 0 0 32 32" xml:space="preserve">
<rect id="background" fill="transparent" width="32" height="32"/>
<path id="icon" fill="#FFFFFF" d="M23.4,21.3v-0.9c0-0.6,0-0.5,0.1-0.6c0.1-0.2,0.2-0.3,0.5-0.3c0.2,0,0.4,0.1,0.5,0.4
		c0,0.1,0.1,0,0.1,0.6v1.1h-1.1V21.3z M23.4,22.4H26v-0.8c0-0.8-0.1-1.6-0.2-2c-0.1-0.4-0.4-0.7-0.7-0.9c-0.3-0.2-0.7-0.3-1.2-0.3
		c-0.4,0-0.8,0.1-1.1,0.3c-0.3,0.2-0.5,0.5-0.7,0.8c-0.1,0.4-0.2,0.9-0.2,1.9v2.4c0,0.3,0,0.8,0.1,1c0.1,0.3,0.2,0.6,0.3,0.8
		c0.1,0.2,0.4,0.4,0.7,0.5c0.3,0.1,0.6,0.2,1,0.2c0.4,0,0.7-0.1,1-0.2c0.2-0.1,0.5-0.3,0.6-0.6c0.2-0.3,0.3-0.5,0.3-0.8
		C26,24.4,26,24,26,23.5v-0.4h-1.4V24c0,0.4,0,0.7-0.1,0.9c-0.1,0.2-0.3,0.4-0.6,0.4c-0.2,0-0.4-0.1-0.5-0.3c0-0.1-0.1-0.3-0.1-0.8
		V22.4z M19.3,23.2c0,0.7,0,0.9-0.1,1.1c-0.1,0.2-0.2,0.4-0.5,0.4c-0.2,0-0.4-0.1-0.5-0.4c0-0.1-0.1-0.3-0.1-1v-2c0-0.7,0-0.9,0.1-1
		c0.1-0.2,0.2-0.4,0.5-0.4c0.2,0,0.4,0.1,0.5,0.4c0,0.1,0.1,0.3,0.1,1V23.2z M20.6,18.7c-0.1-0.2-0.2-0.3-0.4-0.4
		c-0.2-0.1-0.4-0.1-0.6-0.1c-0.2,0-0.4,0-0.5,0.1c-0.2,0.1-0.3,0.3-0.5,0.5l-0.5,0.7v-3.7h-1.5V26h1.4l0.1-0.5l0.1-0.6l0.3,0.5
		c0.1,0.2,0.3,0.4,0.5,0.5c0.2,0.1,0.3,0.2,0.5,0.2c0.3,0,0.5-0.1,0.7-0.3c0.2-0.2,0.3-0.4,0.4-0.7c0.1-0.3,0.1-0.8,0.1-0.7v-4
		c0,0,0.1-0.4,0-1.2C20.8,19.1,20.7,18.9,20.6,18.7 M13.9,23.1c0,0.9,0,1.1,0,1.2c-0.1,0.2-0.2,0.4-0.5,0.4c-0.3,0-0.4-0.1-0.5-0.4
		c0-0.1-0.1-0.3-0.1-1.2v-4.9h-1.5v5.3c0,0.7,0,1.2,0,1.4c0,0.2,0.1,0.4,0.2,0.6c0.1,0.2,0.2,0.3,0.3,0.4c0.2,0.1,0.4,0.2,0.6,0.2
		c0.2,0,0.4-0.1,0.6-0.2c0.2-0.1,0.3-0.3,0.4-0.5l0.5,0.1l0,0.4h1.5v-7.7h-1.5V23.1z M6.4,17.5h1.5V26h1.6v-8.6H11v-1.6H6.4V17.5z
		 M15.1,12.1c0.2,0,0.4-0.1,0.5-0.4c0-0.1,0.1-0.3,0.1-0.9V7.6c0-0.6,0-0.9-0.1-1c-0.1-0.2-0.3-0.4-0.5-0.4c-0.2,0-0.4,0.1-0.5,0.4
		c0,0.1-0.1,0.3-0.1,1v3.1c0,0.6,0,0.8,0.1,0.9C14.7,11.9,14.9,12.1,15.1,12.1 M27.7,25.6c-0.2,1.8-1.8,3.3-3.7,3.5
		c-5.4,0.2-10.7,0.2-16.1,0c-1.8-0.1-3.5-1.6-3.7-3.5c-0.2-2.9-0.2-5.8,0-8.7c0.2-1.8,1.8-3.3,3.7-3.5c5.4-0.2,10.7-0.2,16.1,0
		c1.8,0.1,3.5,1.6,3.7,3.5C27.9,19.8,27.9,22.7,27.7,25.6 M9.4,2.8l1.3,4.1c0.2-1.1,0.7-2.5,1-4.1h1.1l-1.5,5.8l0,0.1v4.1H9.9V8.6
		l0,0L8.2,2.8H9.4z M13,8.5c0-0.8,0.1-1.4,0.2-1.8c0.1-0.4,0.3-0.7,0.6-0.9c0.3-0.2,0.7-0.4,1.2-0.4c0.4,0,0.8,0.1,1.1,0.2
		c0.3,0.2,0.5,0.4,0.7,0.6C17,6.5,17.1,6.7,17.2,7c0.1,0.3,0.1,0.7,0.1,1.3v1.3c0,0.8,0,1.3-0.1,1.7c-0.1,0.3-0.2,0.6-0.3,0.9
		c-0.2,0.3-0.4,0.5-0.7,0.6c-0.3,0.1-0.6,0.2-1,0.2c-0.4,0-0.8-0.1-1.1-0.2c-0.3-0.1-0.5-0.3-0.6-0.5c-0.1-0.2-0.3-0.5-0.3-0.8
		c-0.1-0.3-0.1-0.9-0.1-1.6V8.5z M18.4,5.4H20v4.9c0,0.9,0,0.9,0.1,1c0,0.1,0.1,0.4,0.5,0.4c0.4,0,0.5-0.3,0.5-0.4
		c0-0.1,0.1-0.1,0.1-1.1V5.4h1.6v7.4h-1.6l0-0.4l-0.5-0.2c-0.1,0.2-0.3,0.4-0.4,0.5c-0.2,0.1-0.4,0.2-0.6,0.2
		c-0.3,0-0.5-0.1-0.7-0.2c-0.2-0.1-0.3-0.2-0.4-0.4c-0.1-0.2-0.1-0.4-0.1-0.6c0-0.2,0-0.7,0-1.5V5.4z M0,0v32h32V0H0z"/>
</svg>