<?xml version="1.0" encoding="utf-8"?>
<!DOCTYPE svg PUBLIC "-//W3C//DTD SVG 1.1//EN" "http://www.w3.org/Graphics/SVG/1.1/DTD/svg11.dtd">
<svg version="1.1" xmlns="http://www.w3.org/2000/svg" xmlns:xlink="http://www.w3.org/1999/xlink" x="0px" y="0px"
     viewBox="0 0 32 32" enable-background="new 0 0 32 32" xml:space="preserve">
<rect id="background" fill="transparent" width="32" height="32"/>
<path id="icon" fill="#FFFFFF" d="M25.1,9.9L25.1,9.9c0.6,0,1.2,0,1.8,0c0.9,0,1.5-0.6,1.5-1.5c0-1.1,0-2.2,0-3.2
		c0-0.9-0.6-1.5-1.5-1.6c-1.1,0-2.3,0-3.4,0c-0.9,0-1.5,0.6-1.5,1.6c0,1.1,0,2.2,0,3.4c0,0.8,0.6,1.4,1.3,1.4
		C23.8,9.9,24.5,9.9,25.1,9.9 M16,22.2c0.3,0,0.5,0,0.8,0c1.8-0.2,3.3-1,4.4-2.5c1-1.3,1.4-2.8,1.2-4.4c-0.1-1.3-0.7-2.5-1.7-3.5
		c-1.1-1.2-2.6-1.9-4.2-2c-1.6-0.1-3,0.3-4.3,1.2c-1.3,0.9-2.2,2.2-2.5,3.8c-0.4,1.9,0.1,3.6,1.3,5.1C12.3,21.4,14,22.1,16,22.2
		 M25.6,13.5c0.1,0.6,0.2,1.1,0.3,1.6c0.2,1.7,0,3.3-0.7,4.9c-0.6,1.4-1.5,2.6-2.7,3.6c-1.1,0.9-2.3,1.6-3.7,1.9
		c-1.4,0.4-2.7,0.5-4.1,0.3c-1.8-0.2-3.5-0.9-4.9-2c-1.5-1.1-2.5-2.6-3.1-4.3c-0.6-1.6-0.7-3.3-0.4-5c0.1-0.3,0.1-0.6,0.2-0.9H3.6
		c0,0.1,0,0.2,0,0.3c0,4.4,0,8.7,0,13.1c0,0.9,0.6,1.4,1.4,1.4c7.3,0,14.7,0,22,0c0.8,0,1.4-0.6,1.4-1.4c0-4.4,0-8.7,0-13.1v-0.3
		H25.6z M0,0h32v32H0V0z"/>
</svg>