<?xml version="1.0" encoding="utf-8"?>
<!DOCTYPE svg PUBLIC "-//W3C//DTD SVG 1.1//EN" "http://www.w3.org/Graphics/SVG/1.1/DTD/svg11.dtd">
<svg version="1.1" xmlns="http://www.w3.org/2000/svg" xmlns:xlink="http://www.w3.org/1999/xlink" x="0px" y="0px"
     viewBox="0 0 32 32" enable-background="new 0 0 32 32" xml:space="preserve">
  <path class="background" fill="#ffffff" d="M16,1A15,15,0,1,0,31,16,15,15,0,0,0,16,1Z"/>
  <g>
    <path class="icon" fill="#3d3d3d" d="M17.65,18.35a0.29,0.29,0,0,0-.29.22,2.63,2.63,0,0,0,0,.61v1.24a2.33,2.33,0,0,0,0,.59,0.31,0.31,0,0,0,.3.23A0.3,0.3,0,0,0,18,21a2.56,2.56,0,0,0,0-.64V19.17a2.13,2.13,0,0,0,0-.59A0.3,0.3,0,0,0,17.65,18.35Z"/>
    <path class="icon" fill="#3d3d3d" d="M12.34,11.55v2.5h0.81V11.52L14.05,8H13.36c-0.2.93-.46,1.82-0.6,2.46L12,8H11.3l1,3.52v0Z"/>
    <path class="icon" fill="#3d3d3d" d="M20.83,18.11a0.3,0.3,0,0,0-.3.2,0.59,0.59,0,0,0,0,.38v0.68h0.66V18.7a0.62,0.62,0,0,0,0-.36A0.29,0.29,0,0,0,20.83,18.11Z"/>
    <path class="icon" fill="#3d3d3d" d="M14.46,13.74a0.8,0.8,0,0,0,.38.29,1.73,1.73,0,0,0,.66.11A1.37,1.37,0,0,0,16.1,14a0.94,0.94,0,0,0,.41-0.36,1.46,1.46,0,0,0,.21-0.54,7.42,7.42,0,0,0,.05-1V11.33a4,4,0,0,0-.06-0.78,1.42,1.42,0,0,0-.2-0.47,1.07,1.07,0,0,0-.41-0.36,1.41,1.41,0,0,0-.66-0.15,1.22,1.22,0,0,0-.75.22,1.15,1.15,0,0,0-.38.57,4.13,4.13,0,0,0-.11,1.08v0.84a5.23,5.23,0,0,0,.07,1A1.32,1.32,0,0,0,14.46,13.74Zm0.68-2.81a1.82,1.82,0,0,1,.05-0.59,0.3,0.3,0,0,1,.58,0,2.12,2.12,0,0,1,0,.59v1.93a1.57,1.57,0,0,1-.05.53,0.3,0.3,0,0,1-.29.22,0.3,0.3,0,0,1-.29-0.24,1.73,1.73,0,0,1-.05-0.57V10.93Z"/>
    <path class="icon" fill="#3d3d3d" d="M23.09,16.57a2.43,2.43,0,0,0-2.21-2.1c-3.26-.14-6.5-0.14-9.75,0a2.45,2.45,0,0,0-2.22,2.1,38.48,38.48,0,0,0,0,5.24,2.44,2.44,0,0,0,2.22,2.09c3.25,0.14,6.49.14,9.75,0a2.42,2.42,0,0,0,2.21-2.09A38.15,38.15,0,0,0,23.09,16.57ZM13,16.9H12.07v5.18h-1V16.9H10.18v-1H13v1Zm2.67,5.19H14.73V21.82l-0.28-.07a0.8,0.8,0,0,1-.27.32,0.56,0.56,0,0,1-.34.1,0.66,0.66,0,0,1-.37-0.1,0.54,0.54,0,0,1-.21-0.25,1.2,1.2,0,0,1-.1-0.37c0-.14,0-0.42,0-0.84V17.4h0.92v2.95a3.72,3.72,0,0,0,0,.72,0.29,0.29,0,0,0,.3.22,0.3,0.3,0,0,0,.31-0.23,5.2,5.2,0,0,0,0-.75V17.4h0.92v4.68Zm3.24-3.38v2.44s0,0.27-.05.44a0.78,0.78,0,0,1-.23.42,0.57,0.57,0,0,1-.41.17,0.54,0.54,0,0,1-.32-0.1,1.07,1.07,0,0,1-.29-0.33l-0.2-.33-0.07.38-0.05.28H16.4V15.92h0.91v2.23l0.28-.43a1,1,0,0,1,.29-0.3,0.6,0.6,0,0,1,.32-0.09,0.74,0.74,0,0,1,.37.08,0.6,0.6,0,0,1,.22.23,0.79,0.79,0,0,1,.09.32A3.22,3.22,0,0,1,18.9,18.71Zm3.16,1.17H20.49v1a1.45,1.45,0,0,0,0,.48,0.3,0.3,0,0,0,.29.19,0.33,0.33,0,0,0,.33-0.22,1.85,1.85,0,0,0,.05-0.54V20.32h0.85v0.22a3.84,3.84,0,0,1,0,.67,1.43,1.43,0,0,1-.2.47,1,1,0,0,1-.37.37,1.3,1.3,0,0,1-.59.12,1.54,1.54,0,0,1-.61-0.12,0.94,0.94,0,0,1-.4-0.33,1.31,1.31,0,0,1-.21-0.47,3.65,3.65,0,0,1-.06-0.64V19.18A3.3,3.3,0,0,1,19.71,18a1,1,0,0,1,.41-0.5,1.24,1.24,0,0,1,.66-0.17,1.3,1.3,0,0,1,.76.21,1.08,1.08,0,0,1,.41.56,4.57,4.57,0,0,1,.13,1.24v0.51Z"/>
    <path class="icon" fill="#3d3d3d" d="M17.58,13.79a0.58,0.58,0,0,0,.22.26,0.68,0.68,0,0,0,.39.1A0.63,0.63,0,0,0,18.56,14a0.86,0.86,0,0,0,.26-0.33l0.29,0.12v0.22h1V9.59H19.11v2.93a2.18,2.18,0,0,1,0,.65,0.32,0.32,0,0,1-.32.27,0.31,0.31,0,0,1-.31-0.26,1.5,1.5,0,0,1,0-.62v-3H17.48v2.95c0,0.44,0,.74,0,0.89A1.34,1.34,0,0,0,17.58,13.79Z"/>
  </g>
  <path class="border" fill="#3d3d3d" d="M16,31.5C7.45,31.5,0.5,24.55,0.5,16S7.45,0.5,16,0.5S31.5,7.45,31.5,16S24.55,31.5,16,31.5z M16,1.5
    C8,1.5,1.5,8,1.5,16S8,30.5,16,30.5S30.5,24,30.5,16S24,1.5,16,1.5z"/>
</svg>
