<?xml version="1.0" encoding="utf-8"?>
<!DOCTYPE svg PUBLIC "-//W3C//DTD SVG 1.1//EN" "http://www.w3.org/Graphics/SVG/1.1/DTD/svg11.dtd">
<svg version="1.1" xmlns="http://www.w3.org/2000/svg" xmlns:xlink="http://www.w3.org/1999/xlink" x="0px" y="0px"
     viewBox="0 0 32 32" enable-background="new 0 0 32 32" xml:space="preserve">
<rect id="background" fill="transparent" width="32" height="32"/>
<path id="icon" fill="#FFFFFF" d="M25.3,12.4c0,0.2,0,0.4,0,0.6c0,5.7-4.3,12.2-12.2,12.2c-2.4,0-4.7-0.7-6.6-1.9
		c0.3,0,0.7,0.1,1,0.1c2,0,3.9-0.7,5.3-1.8c-1.9,0-3.5-1.3-4-3c0.3,0.1,0.5,0.1,0.8,0.1c0.4,0,0.8-0.1,1.1-0.2
		c-2-0.4-3.4-2.1-3.4-4.2c0,0,0,0,0-0.1c0.6,0.3,1.2,0.5,1.9,0.5c-1.2-0.8-1.9-2.1-1.9-3.6C7.4,10.3,7.6,9.6,8,9
		c2.1,2.6,5.3,4.3,8.8,4.5c-0.1-0.3-0.1-0.6-0.1-1c0-2.4,1.9-4.3,4.3-4.3c1.2,0,2.3,0.5,3.1,1.4c1-0.2,1.9-0.5,2.7-1
		c-0.3,1-1,1.8-1.9,2.4c0.9-0.1,1.7-0.3,2.5-0.7C26.9,11.1,26.2,11.8,25.3,12.4 M0,0v32h32V0H0z"/>
</svg>