<?xml version="1.0" encoding="utf-8"?>
<!DOCTYPE svg PUBLIC "-//W3C//DTD SVG 1.1//EN" "http://www.w3.org/Graphics/SVG/1.1/DTD/svg11.dtd">
<svg version="1.1" xmlns="http://www.w3.org/2000/svg" xmlns:xlink="http://www.w3.org/1999/xlink" x="0px" y="0px"
     viewBox="0 0 32 32" enable-background="new 0 0 32 32" xml:space="preserve">
  <path class="background" fill="#ffffff" d="M16,1A15,15,0,1,0,31,16,15,15,0,0,0,16,1Z"/>
  <path class="icon" fill="#3d3d3d" d="M19.73,16H17.29v8.7H13.67V16H12V12.93h1.72v-2a3.39,3.39,0,0,1,3.65-3.65H20v3H18.06a0.74,0.74,0,0,0-.77.84v1.81H20Z"/>
  <path class="border" fill="#3d3d3d" d="M16,31.5C7.45,31.5,0.5,24.55,0.5,16S7.45,0.5,16,0.5S31.5,7.45,31.5,16S24.55,31.5,16,31.5z M16,1.5
    C8,1.5,1.5,8,1.5,16S8,30.5,16,30.5S30.5,24,30.5,16S24,1.5,16,1.5z"/>
</svg>
