<?xml version="1.0" encoding="utf-8"?>
<!DOCTYPE svg PUBLIC "-//W3C//DTD SVG 1.1//EN" "http://www.w3.org/Graphics/SVG/1.1/DTD/svg11.dtd">
<svg version="1.1" xmlns="http://www.w3.org/2000/svg" xmlns:xlink="http://www.w3.org/1999/xlink" x="0px" y="0px"
     viewBox="0 0 32 32" enable-background="new 0 0 32 32" xml:space="preserve">
<rect id="background" fill="transparent" width="32" height="32"/>
<path id="icon" fill="#FFFFFF" d="M0,0v32h32V0H0z M9,27H5V12h4V27z M7.1,9.9c-1.5,0-2.8-1.2-2.8-2.8c0-1.5,1.2-2.8,2.8-2.8
  c1.5,0,2.8,1.2,2.8,2.8C9.9,8.7,8.6,9.9,7.1,9.9z M27,27h-4v-7.2c0-1.8-0.4-4-2.8-4c-2.5,0-3.2,1.9-3.2,3.9V27h-5V12h5v2h0.1
  c0.6-1,2-2.4,4.4-2.4c4.8,0,5.6,3.2,5.6,7.3V27z"/>
</svg>