<?xml version="1.0" encoding="utf-8"?>
<!DOCTYPE svg PUBLIC "-//W3C//DTD SVG 1.1//EN" "http://www.w3.org/Graphics/SVG/1.1/DTD/svg11.dtd">
<svg version="1.1" xmlns="http://www.w3.org/2000/svg" xmlns:xlink="http://www.w3.org/1999/xlink" x="0px" y="0px"
     viewBox="0 0 32 32" enable-background="new 0 0 32 32" xml:space="preserve">
  <path class="background" fill="#ffffff" d="M16,1A15,15,0,1,0,31,16,15,15,0,0,0,16,1Z"/>
  <path class="icon" fill="#3d3d3d" d="M17,14.78l0,0v0h0ZM24.39,24h-3.6V18.21c0-1.44-.52-2.43-1.82-2.43a2,2,0,0,0-1.85,1.31A2.41,2.41,0,0,0,17,18v6h-3.6s0-9.73,0-10.74H17v1.52A3.57,3.57,0,0,1,20.25,13c2.37,0,4.14,1.53,4.14,4.83V24ZM9.62,11.75h0A1.86,1.86,0,1,1,9.65,8a1.86,1.86,0,1,1,0,3.71M11.42,24H7.83V13.22h3.6V24Z"/>
  <path class="border" fill="#3d3d3d" d="M16,31.5C7.45,31.5,0.5,24.55,0.5,16S7.45,0.5,16,0.5S31.5,7.45,31.5,16S24.55,31.5,16,31.5z M16,1.5
    C8,1.5,1.5,8,1.5,16S8,30.5,16,30.5S30.5,24,30.5,16S24,1.5,16,1.5z"/>
</svg>
