<?xml version="1.0" encoding="utf-8"?>
<!-- Generator: Adobe Illustrator 23.1.1, SVG Export Plug-In . SVG Version: 6.00 Build 0)  -->
<svg version="1.1" id="Layer_1" xmlns="http://www.w3.org/2000/svg" xmlns:xlink="http://www.w3.org/1999/xlink" x="0px" y="0px"
	 viewBox="0 0 432 49.26" style="enable-background:new 0 0 432 49.26;" xml:space="preserve">
<style type="text/css">
	.st0{fill:#3D3D3D;}
</style>
<g>
	<path class="st0" d="M8.41,24.86v2.79c0,1.94,2.47,3.05,5.41,3.05s5.05-1.05,5.05-3.05c0-2.89-4.15-3.78-8.1-5.36
		c-5.1-1.94-9.88-4.42-9.88-11.3C0.89,2.63,7.73,0,14.4,0c6.41,0,12.77,2.42,12.77,7.2v5.57h-8.41v-2.37c0-1.47-2-2.26-4.36-2.26
		c-2.15,0-4.05,0.63-4.05,2.58c0,2.58,3.1,3.68,6.52,4.89c5.73,2,11.46,4.36,11.46,11.46c0,8.57-7.36,11.77-14.51,11.77
		C6.83,38.84,0,35.74,0,29.7v-4.84H8.41z"/>
	<path class="st0" d="M33.32,17.71h-3.68v-6.57h3.94V3.84h8.83v7.31h5.68v6.57h-5.68v9.57c0,3.26,3.1,3.73,4.84,3.73
		c0.74,0,1.21-0.05,1.21-0.05v7.36c0,0-1,0.16-2.47,0.16c-4.31,0-12.67-1.16-12.67-10.25V17.71z"/>
	<path class="st0" d="M65.69,21.39h1.63v-0.79c0-2.21-1.79-3-3.84-3c-3.68,0-7.46,2.58-7.46,2.58l-3.15-6.15
		c0,0,4.63-3.52,11.46-3.52c7.88,0,12.09,3.94,12.09,11.04v8.94c0,0.74,0.42,1.16,1.16,1.16h2v6.57h-7.83
		c-2.63,0-3.63-1.52-3.63-2.84v-0.16c0-0.47,0.1-0.84,0.1-0.84h-0.1c0,0-2.21,4.47-7.99,4.47c-4.73,0-8.88-2.89-8.88-8.36
		C51.24,22.55,61.49,21.39,65.69,21.39z M62.8,32.27c2.31,0,4.63-2.79,4.63-5.15v-0.63h-0.84c-3,0-6.2,0.95-6.2,3.36
		C60.38,31.28,61.33,32.27,62.8,32.27z"/>
	<path class="st0" d="M82.66,31.64h3.68V18.87c0-0.74-0.42-1.16-1.16-1.16h-2.52v-6.57h8.57c2.47,0,3.84,1,3.84,3.47v1.42
		c0,0.84-0.1,1.37-0.1,1.37h0.1c1.16-3.68,4.57-6.73,8.62-6.73c0.53,0,1.05,0.1,1.05,0.1v8.94c0,0-0.74-0.16-1.84-0.16
		c-5.05,0-7.46,3.21-7.46,8.15v3.94h3.68v6.57H82.66V31.64z"/>
	<path class="st0" d="M110.63,17.71h-3.68v-6.57h3.94V3.84h8.83v7.31h5.68v6.57h-5.68v9.57c0,3.26,3.1,3.73,4.84,3.73
		c0.74,0,1.21-0.05,1.21-0.05v7.36c0,0-1,0.16-2.47,0.16c-4.31,0-12.67-1.16-12.67-10.25V17.71z"/>
	<path class="st0" d="M142.48,28.65h7.62v1.37c0,1.21,1.31,1.94,3.94,1.94c2.15,0,3.31-0.53,3.31-1.58c0-1.68-1.84-1.89-5.31-3.05
		c-3.94-1.31-8.62-3.21-8.62-8.67c0-6.36,6.41-8.15,11.62-8.15c4.15,0,10.36,1.47,10.36,5.89v3.68h-7.62v-1.21
		c0-0.84-0.79-1.47-2.73-1.47c-1.47,0-2.58,0.31-2.58,1.37c0,1.63,2.15,2.26,4.73,2.94c4.1,1.1,9.2,2.79,9.2,8.41
		c0,6.1-5.94,8.72-12.35,8.72c-4.84,0-11.56-2.05-11.56-6.57V28.65z"/>
	<path class="st0" d="M184.31,10.51c8.57,0,15.4,5.73,15.4,14.24c0,8.46-6.83,14.09-15.35,14.09c-8.52,0-15.35-5.62-15.35-14.09
		C169.01,16.24,175.85,10.51,184.31,10.51z M184.36,31.28c3.31,0,6.15-2.47,6.15-6.52c0-4.1-2.84-6.68-6.15-6.68
		c-3.31,0-6.15,2.58-6.15,6.68C178.21,28.81,181.05,31.28,184.36,31.28z"/>
	<path class="st0" d="M201.55,31.64h3.42V18.82c0-0.74-0.42-1.1-1.16-1.1h-2.52v-6.57h8.57c2.47,0,3.78,1.21,3.78,3.05v0.89
		c0,0.26-0.05,0.63-0.05,0.63h0.1c1.37-2.1,3.99-5.2,8.57-5.2c2.94,0,5.73,1.31,7.04,5.1h0.11c1.47-2.89,4.78-5.1,8.94-5.1
		c4.63,0,8.52,2.68,8.52,10.15v10.99h3.42v6.57h-12.51V22.18c0-2-0.37-3.42-2.1-3.42c-3.94,0-5.2,3.73-5.2,8.25v4.63h3.42v6.57
		h-12.51V22.18c0-2-0.37-3.42-2.1-3.42c-4.15,0-5.2,4.42-5.2,8.78v4.1h3.42v6.57h-15.93V31.64z"/>
	<path class="st0" d="M264.88,10.51c8.09,0,12.61,5.57,12.61,13.09c0,0.89-0.21,2.73-0.21,2.73h-17.19
		c0.68,3.47,3.42,4.99,6.31,4.99c3.99,0,7.62-2.58,7.62-2.58l3.31,6.31c0,0-4.36,3.78-11.67,3.78c-9.67,0-14.88-6.99-14.88-14.19
		C250.79,16.72,256.15,10.51,264.88,10.51z M268.08,21.34c0-2.15-1.42-3.99-3.42-3.99c-2.63,0-3.89,1.89-4.36,3.99H268.08z"/>
	<path class="st0" d="M281.96,17.71h-3.68v-6.57h3.94V3.84h8.83v7.31h5.68v6.57h-5.68v9.57c0,3.26,3.1,3.73,4.84,3.73
		c0.74,0,1.21-0.05,1.21-0.05v7.36c0,0-1,0.16-2.47,0.16c-4.31,0-12.67-1.16-12.67-10.25V17.71z"/>
	<path class="st0" d="M300.01,31.64h3.42V7.2h-3.68V0.63h12.77v11.88c0,1.37-0.11,2.31-0.11,2.31h0.11
		c1.52-2.68,4.68-4.31,8.25-4.31c5.47,0,9.72,2.52,9.72,10.15v10.99h3.42v6.57H321.4V22.34c0-2.52-1-3.57-3-3.57
		c-4,0-5.89,3.57-5.89,7.46v5.41h3.42v6.57h-15.93V31.64z"/>
	<path class="st0" d="M336.97,31.64h3.42V17.71h-3.68v-6.57h12.77v20.5h3.42v6.57h-15.93V31.64z M340.49,0.63h8.88v7.1h-8.88V0.63z"
		/>
	<path class="st0" d="M356.21,31.64h3.42V18.87c0-0.74-0.42-1.16-1.16-1.16h-2.52v-6.57h8.62c2.47,0,3.73,1.21,3.73,3.05v0.89
		c0,0.26-0.05,0.63-0.05,0.63h0.1c0,0,2.37-5.2,9.2-5.2c5.1,0,9.15,2.52,9.15,10.15v10.99h3.42v6.57h-12.51V22.34
		c0-2.52-1-3.57-3.05-3.57c-4.05,0-5.83,4.21-5.83,7.99v4.89h3.42v6.57h-15.93V31.64z"/>
	<path class="st0" d="M403.41,41.95c3.26,0,6.26-1.26,6.26-5.47v-0.89c0-0.32,0.05-1,0.05-1h-0.1c-1.58,1.89-3.63,2.84-6.78,2.84
		c-8.15,0-12.2-6.68-12.2-13.61c0-6.89,3.94-13.3,12.14-13.3c2.79,0,6.36,1,7.89,3.52h0.1c0,0-0.05-0.42-0.05-0.68
		c0-1.05,1-2.21,3.05-2.21h8.2v6.57h-2.05c-0.68,0-1.16,0.37-1.16,1v17.03c0,9.88-7.88,13.51-15.3,13.51
		c-3.63,0-7.62-1.05-10.25-2.42l2.58-6.62C395.79,40.21,399.15,41.95,403.41,41.95z M409.88,23.92c0-4.78-2.52-5.83-5.26-5.83
		c-3.21,0-4.84,2.31-4.84,5.41c0,3.36,1.58,6.36,5.2,6.36C407.35,29.86,409.88,28.65,409.88,23.92z"/>
	<path class="st0" d="M423.38,29.59H432v8.62h-8.62V29.59z"/>
</g>
</svg>
